<svg width="196" height="196" viewBox="0 0 196 196" fill="none" xmlns="http://www.w3.org/2000/svg">
<rect width="196" height="196" fill="url(#paint0_linear_2_6)"/>
<path d="M150.991 64.6318C146.011 65.4066 140.643 66.6517 134.888 68.3672C133.726 68.6992 132.785 68.8652 132.065 68.8652C130.627 68.8652 129.907 68.0352 129.907 66.375C129.907 65.3236 130.627 64.4658 132.065 63.8018C135.441 62.1416 142.275 60.3984 152.568 58.5723C163.525 56.5801 172.131 55.584 178.384 55.584C180.321 55.584 181.289 56.3311 181.289 57.8252C181.289 58.8766 180.763 59.596 179.712 59.9834C179.048 60.3154 177.083 60.6475 173.818 60.9795C167.122 61.6989 162.197 63.027 159.043 64.9639C156.497 66.4027 150.715 72.0195 141.694 81.8145C124.595 100.63 110.511 117.84 99.4434 133.445C93.1901 142.244 86.4665 152.509 79.2725 164.241C77.7783 166.621 76.3118 167.811 74.873 167.811C73.1576 167.811 72.1338 167.063 71.8018 165.569C71.5251 164.518 71.3867 163.3 71.3867 161.917C71.3867 155.83 72.6872 145.758 75.2881 131.702C76.7822 123.401 78.9681 113.689 81.8457 102.566C82.1224 101.515 82.2607 100.851 82.2607 100.574C82.2607 99.9102 81.9564 99.5781 81.3477 99.5781C81.0156 99.5781 80.4622 100.021 79.6875 100.906L79.1064 101.57C75.8415 104.946 68.5645 114.879 57.2754 131.37C50.3581 141.552 43.8835 152.067 37.8516 162.913C36.1361 165.901 34.4482 167.396 32.7881 167.396C30.5745 167.396 29.4678 165.625 29.4678 162.083C29.4678 156.051 30.2979 147.584 31.958 136.683C34.1715 122.571 37.5472 107.99 42.085 92.9375C44.9072 83.5853 47.7572 75.6165 50.6348 69.0312C47.5911 69.6953 44.4922 70.5807 41.3379 71.6875C36.5234 73.403 33.6735 74.2607 32.7881 74.2607C31.3493 74.2607 30.6299 73.6243 30.6299 72.3516C30.6299 71.0788 31.4046 70.0827 32.9541 69.3633C38.3219 66.8177 45.5713 64.5212 54.7021 62.4736C63.667 60.4261 71.2484 59.4023 77.4463 59.4023C79.8258 59.4023 81.0156 60.2324 81.0156 61.8926C81.0156 63.4421 79.8535 64.2721 77.5293 64.3828C70.3906 64.8255 65.9635 65.5173 64.248 66.458C62.6986 67.3988 61.3981 68.9482 60.3467 71.1064C56.8604 78.4665 52.6546 91.637 47.7295 110.618C44.0771 125.062 41.9189 136.738 41.2549 145.647C50.6071 130.706 61.6748 115.128 74.458 98.9141C83.3675 87.625 89.1227 80.763 91.7236 78.3281C93.2178 76.8893 94.4906 76.1699 95.542 76.1699C97.4788 76.1699 98.4473 77.2214 98.4473 79.3242C98.4473 80.1543 96.6488 86.4629 93.0518 98.25C89.5654 109.982 86.7708 121.824 84.668 133.777C83.5612 139.865 82.8971 144.43 82.6758 147.474C87.7669 139.228 97.0638 126.694 110.566 109.871C116.82 102.068 123.626 93.9889 130.986 85.6328C134.085 82.1465 140.09 75.8102 148.999 66.624L150.991 64.6318Z" fill="black"/>
<defs>
<linearGradient id="paint0_linear_2_6" x1="0" y1="0" x2="196" y2="196" gradientUnits="userSpaceOnUse">
<stop stop-color="#00FF0A"/>
<stop offset="1" stop-color="#FFD600"/>
</linearGradient>
</defs>
</svg>
